<svg width="198" height="30" viewBox="0 0 198 30" fill="none" xmlns="http://www.w3.org/2000/svg">
<g clip-path="url(#clip0_1_1839)">
<path d="M38.833 19.2845C38.4709 19.5321 38.0553 19.7616 37.5836 19.9407C36.6382 20.3065 35.6479 20.412 34.9805 20.2967C35.5227 20.0342 36.0768 19.7304 36.6179 19.3795C36.6908 19.3312 37.2635 18.9285 37.2849 18.9179C37.6721 18.6246 38.051 18.3248 38.391 18.0163C38.4172 17.9953 38.6066 17.8281 38.6745 17.7542C38.7314 17.6969 38.8947 17.5388 38.9212 17.5189C41.1309 15.3009 42.0476 12.7482 40.9578 11.2806C40.4058 10.5258 39.3992 10.1738 38.1805 10.2006C37.7139 10.5519 37.1488 10.8771 36.5058 11.1229C35.4689 11.5257 34.4311 11.6628 33.5902 11.5634C34.4187 11.1965 35.2701 10.7354 36.1018 10.1738C36.1813 10.1212 36.2601 10.069 36.3287 10.0106C40.1594 7.29629 42.4098 3.21806 40.9321 1.20522C40.4998 0.622616 39.823 0.255723 38.9894 0.0987427C38.9216 0.0827909 38.5594 0.0414611 38.5427 0.0414611C38.4077 0.0262343 38.2549 0.0149955 38.149 0.0149955C33.3278 -0.236609 27.3461 2.85624 23.3695 8.05074C17.8374 15.2806 17.6291 24.3064 22.9021 28.2023C26.0245 30.5142 30.368 30.5091 34.5388 28.6272C34.7979 28.5065 35.6889 28.0341 36.0772 27.7883C36.3185 27.6313 37.1532 27.0592 37.3484 26.8975C40.1239 24.6693 41.43 21.7603 40.2611 20.1818C39.9294 19.7311 39.4405 19.4368 38.833 19.2845Z" fill="#FC004A"/>
<path d="M8.35093 22.3243V2.91268C8.35093 1.64523 7.33335 0.621778 6.06973 0.580811H0.16098V27.2106C0.196545 28.4476 1.19524 29.4435 2.43745 29.4754H15.7389V22.3239L8.35093 22.3243Z" fill="#FC004A"/>
<path d="M53.2055 8.72712C53.2055 7.85593 53.7673 7.16964 55.2773 7.16964C56.5115 7.16964 57.7962 7.40529 59.029 7.90959C59.9678 8.28156 60.8761 8.81558 61.7043 9.50731L64.172 5.49216C65.0626 4.07172 64.847 2.82348 63.4673 2.06976C63.436 2.05417 63.4103 2.04329 63.3845 2.02662C61.1436 0.770045 58.4639 0.109131 55.5865 0.109131C48.4769 0.109131 44.8356 4.70073 44.8356 9.38187C44.8356 19.6875 57.6282 17.9944 57.6282 21.2029C57.6282 22.2833 56.4992 22.9326 54.9834 22.9326C52.1658 22.9326 49.5206 21.7217 47.7838 19.9025L45.3081 23.9503C44.5427 25.1249 44.5144 26.6806 45.7805 27.5623C45.7969 27.5826 45.8255 27.5877 45.8473 27.609C48.1931 29.1335 51.154 29.9996 55.0305 29.9996C61.7471 29.9996 65.9099 26.2669 65.9099 20.385C65.9099 10.6352 53.2055 11.7565 53.2055 8.72712Z" fill="#FC004A"/>
<path d="M96.3171 2.22192C96.0446 1.38264 95.3721 0.581055 93.7576 0.581055H85.9011L77.4071 29.4761H83.7811C84.8001 29.4438 85.6544 28.7673 85.9487 27.8504L86.5729 25.7488H95.1246L95.7027 27.7449C95.9666 28.7194 96.8524 29.4442 97.9026 29.4761H104.336L96.3171 2.22192ZM88.6817 18.5973L90.8914 10.4778L93.0692 18.5973H88.6817Z" fill="#FC004A"/>
<path d="M113.58 0.580811H107.672V27.1736C107.688 28.4317 108.7 29.4439 109.948 29.4758H115.863V2.87679C115.863 1.57635 114.828 0.622503 113.58 0.580811Z" fill="#FC004A"/>
<path d="M129.998 22.3243V2.91268C129.994 1.64523 128.976 0.621778 127.712 0.580811H121.804V27.2106C121.839 28.4476 122.847 29.4435 124.08 29.4754H137.394V22.3239L129.998 22.3243Z" fill="#FC004A"/>
<path d="M160.474 19.2845C160.119 19.5321 159.694 19.7616 159.221 19.9407C158.276 20.3065 157.283 20.412 156.619 20.2967C157.17 20.0342 157.724 19.7304 158.267 19.3795C158.335 19.3312 158.91 18.9285 158.926 18.9179C159.319 18.6246 159.687 18.3248 160.035 18.0163C160.066 17.9953 160.248 17.8281 160.319 17.7542C160.385 17.6969 160.544 17.5388 160.558 17.5189C162.774 15.3009 163.692 12.7482 162.611 11.2806C162.05 10.5258 161.053 10.1738 159.823 10.2006C159.358 10.5519 158.79 10.8771 158.156 11.1229C157.116 11.5257 156.079 11.6628 155.232 11.5634C156.073 11.1965 156.917 10.7354 157.752 10.1738C157.826 10.1212 157.898 10.069 157.982 10.0106C161.807 7.29629 164.057 3.21806 162.58 1.20522C162.148 0.622616 161.472 0.255723 160.631 0.0987427C160.558 0.0827909 160.207 0.0414611 160.186 0.0414611C160.061 0.0262343 159.899 0.0149955 159.792 0.0149955C154.975 -0.236609 148.985 2.85624 145.01 8.05074C139.476 15.2806 139.276 24.3064 144.537 28.2023C147.667 30.5142 152.011 30.5091 156.182 28.6272C156.434 28.5065 157.326 28.0341 157.723 27.7883C157.966 27.6313 158.796 27.0592 158.988 26.8975C161.772 24.6693 163.067 21.7603 161.907 20.1818C161.582 19.7311 161.084 19.4375 160.473 19.2852L160.474 19.2845Z" fill="#FC004A"/>
<path d="M174.847 8.72712C174.847 7.85593 175.41 7.16964 176.931 7.16964C178.153 7.16964 179.446 7.40529 180.673 7.90959C181.618 8.28156 182.526 8.81558 183.349 9.50731L185.814 5.49216C186.706 4.07172 186.492 2.82348 185.107 2.06976C185.085 2.05417 185.06 2.04329 185.028 2.02662C182.787 0.770045 180.112 0.109131 177.229 0.109131C170.121 0.109131 166.479 4.70073 166.479 9.38187C166.479 19.6875 179.272 17.9944 179.272 21.2029C179.272 22.2833 178.143 22.9326 176.627 22.9326C173.803 22.9326 171.164 21.7217 169.427 19.9025L166.956 23.9503C166.186 25.1249 166.154 26.6806 167.422 27.5623C167.45 27.5826 167.466 27.5877 167.491 27.609C169.843 29.1335 172.791 29.9996 176.668 29.9996C183.39 29.9996 187.551 26.2669 187.551 20.385C187.551 10.6352 174.847 11.7565 174.847 8.72712Z" fill="#FC004A"/>
<path d="M193.339 5.21964H192.69V1.55035H193.288C193.603 1.54492 193.781 1.54492 193.813 1.54492C194.694 1.54492 195.135 1.91688 195.135 2.67206C195.135 2.95521 195.061 3.18469 194.918 3.36379C194.782 3.53201 194.615 3.65745 194.436 3.71473L195.585 5.21964H194.799L193.791 3.85141H193.34L193.339 5.21964ZM193.339 2.15326V3.23763H193.759C194.159 3.23763 194.458 3.03351 194.458 2.67677C194.458 2.32076 194.238 2.14239 193.781 2.14239C193.717 2.14239 193.566 2.14746 193.339 2.15326Z" fill="#FC004A"/>
<path d="M193.885 6.65072C192.076 6.65072 190.606 5.17735 190.606 3.37479C190.606 1.57622 192.076 0.109375 193.885 0.109375C195.692 0.109375 197.16 1.57622 197.16 3.37479C197.16 5.17735 195.691 6.65072 193.885 6.65072ZM193.885 0.664427C192.39 0.664427 191.162 1.87495 191.162 3.37479C191.162 4.87825 192.39 6.09567 193.885 6.09567C195.386 6.09567 196.609 4.87862 196.609 3.37479C196.609 1.87532 195.386 0.664427 193.885 0.664427Z" fill="#FC004A"/>
</g>
<defs>
<clipPath id="clip0_1_1839">
<rect width="197" height="30" fill="white" transform="translate(0.160004)"/>
</clipPath>
</defs>
</svg>
